<!-- alternative color fill="#364f6b" -->

<svg
    xmlns="http://www.w3.org/2000/svg"
    height="65"
    viewBox="0 0 370 75"
    aria-labelledby="svgTitle svgDesc"
>
  <title id="svgTitle">Better Sales AI</title>
  <desc id="svgDesc">Better Sales AI Logo</desc>
  <path
    d="M29.5,25.5c2.5,0,4.6-2.1,4.6-4.6s-2.1-4.6-4.6-4.6c-2.5,0-4.6,2.1-4.6,4.6S27,25.5,29.5,25.5z M27,58  c0,0.7,0.6,1.3,1.3,1.3c0.7,0,1.3-0.6,1.3-1.3s-0.6-1.3-1.3-1.3C27.6,56.7,27,57.3,27,58z M36.2,31.3c1.1,0,1.9-0.9,1.9-1.9  c0-1.1-0.9-1.9-1.9-1.9c-1.1,0-1.9,0.9-1.9,1.9C34.3,30.4,35.1,31.3,36.2,31.3z M21.1,48.6c2.5,0,4.6-2.1,4.6-4.6  c0-2.5-2.1-4.6-4.6-4.6s-4.6,2.1-4.6,4.6C16.6,46.5,18.6,48.6,21.1,48.6z M14.5,37.8c1.1,0,1.9-0.9,1.9-1.9c0-1.1-0.9-1.9-1.9-1.9  c-1.1,0-1.9,0.9-1.9,1.9C12.6,37,13.4,37.8,14.5,37.8z M13.8,42c0-0.7-0.6-1.3-1.3-1.3c-0.7,0-1.3,0.6-1.3,1.3s0.6,1.3,1.3,1.3  C13.2,43.3,13.8,42.7,13.8,42z M19.9,31.2c1.8,0,3.2-1.4,3.2-3.2s-1.4-3.2-3.2-3.2c-1.8,0-3.2,1.4-3.2,3.2S18.1,31.2,19.9,31.2z   M58.8,13.6c0.7,0,1.3-0.6,1.3-1.3c0-0.7-0.6-1.3-1.3-1.3c-0.7,0-1.3,0.6-1.3,1.3C57.5,13,58.1,13.6,58.8,13.6z M23.8,57.5  c0-3.1-2.5-5.6-5.6-5.6c-3.1,0-5.6,2.5-5.6,5.6s2.5,5.6,5.6,5.6C21.3,63.1,23.8,60.6,23.8,57.5z M79.9,33.9c2.5,0,4.6-2.1,4.6-4.6  s-2.1-4.6-4.6-4.6s-4.6,2.1-4.6,4.6S77.3,33.9,79.9,33.9z M69.6,65.5c0,1.8,1.4,3.2,3.2,3.2c1.8,0,3.2-1.4,3.2-3.2s-1.4-3.2-3.2-3.2  C71,62.3,69.6,63.7,69.6,65.5z M72.8,22.9c1.8,0,3.2-1.4,3.2-3.2c0-1.8-1.4-3.2-3.2-3.2c-1.8,0-3.2,1.4-3.2,3.2  C69.6,21.5,71,22.9,72.8,22.9z M65.7,31.2c1.8,0,3.2-1.4,3.2-3.2s-1.4-3.2-3.2-3.2c-1.8,0-3.2,1.4-3.2,3.2S63.9,31.2,65.7,31.2z   M77.2,42.5c0,3.1,2.5,5.6,5.6,5.6c3.1,0,5.6-2.5,5.6-5.6s-2.5-5.6-5.6-5.6C79.7,36.9,77.2,39.4,77.2,42.5z M74,42  c0-0.7-0.6-1.3-1.3-1.3c-0.7,0-1.3,0.6-1.3,1.3s0.6,1.3,1.3,1.3C73.4,43.3,74,42.7,74,42z M64.8,16.1c1.1,0,1.9-0.9,1.9-1.9  s-0.9-1.9-1.9-1.9c-1.1,0-1.9,0.9-1.9,1.9S63.8,16.1,64.8,16.1z M70.8,37.8c1.1,0,1.9-0.9,1.9-1.9c0-1.1-0.9-1.9-1.9-1.9  s-1.9,0.9-1.9,1.9C68.9,37,69.8,37.8,70.8,37.8z M31.4,34.5c0-1.8-1.4-3.2-3.2-3.2c-1.8,0-3.2,1.4-3.2,3.2s1.4,3.2,3.2,3.2  C30,37.7,31.4,36.3,31.4,34.5z M64.8,68.7c-1.1,0-1.9,0.9-1.9,1.9c0,1.1,0.9,1.9,1.9,1.9c1.1,0,1.9-0.9,1.9-1.9  C66.7,69.6,65.9,68.7,64.8,68.7z M58.3,76.4c-3.1,0-5.6,2.5-5.6,5.6s2.5,5.6,5.6,5.6c3.1,0,5.6-2.5,5.6-5.6S61.4,76.4,58.3,76.4z   M71.5,74.5c-2.5,0-4.6,2.1-4.6,4.6s2.1,4.6,4.6,4.6c2.5,0,4.6-2.1,4.6-4.6S74,74.5,71.5,74.5z M57.5,72.5c0,0.7,0.6,1.3,1.3,1.3  c0.7,0,1.3-0.6,1.3-1.3c0-0.7-0.6-1.3-1.3-1.3C58.1,71.3,57.5,71.8,57.5,72.5z M88.5,56.7c-0.7,0-1.3,0.6-1.3,1.3s0.6,1.3,1.3,1.3  c0.7,0,1.3-0.6,1.3-1.3S89.1,56.7,88.5,56.7z M86.5,62.2c-1.1,0-1.9,0.9-1.9,1.9c0,1.1,0.9,1.9,1.9,1.9c1.1,0,1.9-0.9,1.9-1.9  C88.4,63,87.6,62.2,86.5,62.2z M56.2,25.5c2.5,0,4.6-2.1,4.6-4.6s-2.1-4.6-4.6-4.6s-4.6,2.1-4.6,4.6S53.7,25.5,56.2,25.5z   M79.9,51.4c-2.5,0-4.6,2.1-4.6,4.6c0,2.5,2.1,4.6,4.6,4.6s4.6-2.1,4.6-4.6C84.4,53.5,82.4,51.4,79.9,51.4z M21.1,66.1  c-2.5,0-4.6,2.1-4.6,4.6s2.1,4.6,4.6,4.6s4.6-2.1,4.6-4.6S23.7,66.1,21.1,66.1z M81.1,68.8c-1.8,0-3.2,1.4-3.2,3.2s1.4,3.2,3.2,3.2  c1.8,0,3.2-1.4,3.2-3.2S82.9,68.8,81.1,68.8z M30.2,62.2c-1.1,0-1.9,0.9-1.9,1.9c0,1.1,0.9,1.9,1.9,1.9s1.9-0.9,1.9-1.9  C32.1,63,31.2,62.2,30.2,62.2z M35.3,68.8c-1.8,0-3.2,1.4-3.2,3.2s1.4,3.2,3.2,3.2c1.8,0,3.2-1.4,3.2-3.2S37.1,68.8,35.3,68.8z   M36.2,83.9c-1.1,0-1.9,0.9-1.9,1.9s0.9,1.9,1.9,1.9c1.1,0,1.9-0.9,1.9-1.9S37.2,83.9,36.2,83.9z M28.2,77.1c-1.8,0-3.2,1.4-3.2,3.2  c0,1.8,1.4,3.2,3.2,3.2c1.8,0,3.2-1.4,3.2-3.2C31.4,78.5,30,77.1,28.2,77.1z M41,27.5c0,0.7,0.6,1.3,1.3,1.3c0.7,0,1.3-0.6,1.3-1.3  c0-0.7-0.6-1.3-1.3-1.3C41.5,26.2,41,26.8,41,27.5z M48.3,17.9c0-3.1-2.5-5.6-5.6-5.6c-3.1,0-5.6,2.5-5.6,5.6s2.5,5.6,5.6,5.6  C45.8,23.6,48.3,21.1,48.3,17.9z M42.2,86.4c-0.7,0-1.3,0.6-1.3,1.3c0,0.7,0.6,1.3,1.3,1.3c0.7,0,1.3-0.6,1.3-1.3  C43.5,87,42.9,86.4,42.2,86.4z M44.8,74.5c-2.5,0-4.6,2.1-4.6,4.6s2.1,4.6,4.6,4.6s4.6-2.1,4.6-4.6S47.3,74.5,44.8,74.5z"
    fill="#3056d3"
    transform="matrix(0.79,0,0,0.79,-8.88,-8.72)"
  ></path>
  <path
    d="M1.6 5.609999999999999 q0 -0.21 0.115 -0.335 t0.325 -0.125 l6.64 0 q0.88 0 1.66 0.335 t1.365 0.92 t0.925 1.37 t0.34 1.685 q0 0.75 -0.235 1.395 t-0.665 1.155 q0.72 0.66 1.14 1.57 t0.42 1.93 q0 0.91 -0.35 1.725 t-0.945 1.43 t-1.39 0.975 t-1.675 0.36 l-7.23 0 q-0.2 0 -0.32 -0.105 t-0.12 -0.325 l0 -13.96 z M9.66 15.36 q0 -0.3 -0.115 -0.6 t-0.32 -0.535 t-0.49 -0.385 t-0.615 -0.15 l-2.64 0 l0 3.34 l2.64 0 q0.33 0 0.61 -0.14 t0.49 -0.375 t0.325 -0.535 t0.115 -0.62 z M9.13 9.55 q0 -0.3 -0.11 -0.56 t-0.31 -0.46 t-0.48 -0.315 t-0.61 -0.115 l-2.14 0 l0 2.9 l2.11 0 q0.34 0 0.625 -0.105 t0.485 -0.3 t0.315 -0.46 t0.115 -0.585 z M25.939999999999998 18.48 q-0.88 0.81 -1.98 1.265 t-2.33 0.455 q-1.37 0 -2.59 -0.5 t-2.14 -1.385 t-1.46 -2.085 t-0.54 -2.61 q0 -0.88 0.215 -1.705 t0.61 -1.545 t0.96 -1.325 t1.265 -1.035 t1.52 -0.67 t1.73 -0.24 q0.83 0 1.61 0.22 t1.465 0.62 t1.255 0.96 t0.98 1.225 t0.635 1.42 t0.225 1.555 q0 0.52 -0.015 0.85 t-0.155 0.525 t-0.465 0.27 t-0.955 0.075 l-7.2 0 q0.1 0.64 0.405 1.07 t0.705 0.685 t0.85 0.365 t0.85 0.11 q0.36 0 0.74 -0.075 t0.735 -0.2 t0.65 -0.29 t0.475 -0.345 q0.16 -0.13 0.275 -0.195 t0.245 -0.065 t0.265 0.09 t0.305 0.26 l1.06 1.2 q0.11 0.13 0.14 0.235 t0.03 0.215 q0 0.2 -0.11 0.345 t-0.26 0.255 z M21.13 10.15 q-0.39 0 -0.755 0.155 t-0.685 0.415 t-0.575 0.59 t-0.415 0.67 l5.11 0 q-0.21 -0.39 -0.455 -0.72 t-0.56 -0.58 t-0.72 -0.39 t-0.945 -0.14 z M30.229999999999997 5.32 q0 -0.31 0.205 -0.465 t0.585 -0.295 l2.27 -0.79 q0.05 -0.01 0.095 -0.01 l0.085 0 q0.37 0 0.495 0.215 t0.125 0.565 l-0.01 3.15 l1.67 0 q0.32 0 0.52 0.19 t0.2 0.57 l0 1.93 q0 0.42 -0.2 0.615 t-0.52 0.195 l-1.67 0 l0.01 8.04 q0 0.38 -0.22 0.575 t-0.61 0.195 l-2.26 0 q-0.77 0 -0.77 -0.77 l-0.01 -8.04 l-0.73 0 q-0.77 0 -0.77 -0.81 l0 -1.93 q0 -0.76 0.77 -0.76 l0.73 0 z M38.81999999999999 5.32 q0 -0.31 0.205 -0.465 t0.585 -0.295 l2.27 -0.79 q0.05 -0.01 0.095 -0.01 l0.085 0 q0.37 0 0.495 0.215 t0.125 0.565 l-0.01 3.15 l1.67 0 q0.32 0 0.52 0.19 t0.2 0.57 l0 1.93 q0 0.42 -0.2 0.615 t-0.52 0.195 l-1.67 0 l0.01 8.04 q0 0.38 -0.22 0.575 t-0.61 0.195 l-2.26 0 q-0.77 0 -0.77 -0.77 l-0.01 -8.04 l-0.73 0 q-0.77 0 -0.77 -0.81 l0 -1.93 q0 -0.76 0.77 -0.76 l0.73 0 z M56.97 18.48 q-0.88 0.81 -1.98 1.265 t-2.33 0.455 q-1.37 0 -2.59 -0.5 t-2.14 -1.385 t-1.46 -2.085 t-0.54 -2.61 q0 -0.88 0.215 -1.705 t0.61 -1.545 t0.96 -1.325 t1.265 -1.035 t1.52 -0.67 t1.73 -0.24 q0.83 0 1.61 0.22 t1.465 0.62 t1.255 0.96 t0.98 1.225 t0.635 1.42 t0.225 1.555 q0 0.52 -0.015 0.85 t-0.155 0.525 t-0.465 0.27 t-0.955 0.075 l-7.2 0 q0.1 0.64 0.405 1.07 t0.705 0.685 t0.85 0.365 t0.85 0.11 q0.36 0 0.74 -0.075 t0.735 -0.2 t0.65 -0.29 t0.475 -0.345 q0.16 -0.13 0.275 -0.195 t0.245 -0.065 t0.265 0.09 t0.305 0.26 l1.06 1.2 q0.11 0.13 0.14 0.235 t0.03 0.215 q0 0.2 -0.11 0.345 t-0.26 0.255 z M52.16 10.15 q-0.39 0 -0.755 0.155 t-0.685 0.415 t-0.575 0.59 t-0.415 0.67 l5.11 0 q-0.21 -0.39 -0.455 -0.72 t-0.56 -0.58 t-0.72 -0.39 t-0.945 -0.14 z M60.489999999999995 8.04 q0 -0.17 0.075 -0.325 t0.185 -0.245 q0.26 -0.17 0.54 -0.17 l1.51 0 q0.19 0 0.3 0.07 t0.185 0.18 t0.13 0.25 t0.135 0.28 q0.02 0.04 0.08 0.195 t0.13 0.34 t0.135 0.35 t0.085 0.215 q0.3 -0.33 0.575 -0.695 t0.585 -0.675 t0.69 -0.51 t0.9 -0.2 q0.54 0 0.965 0.08 t0.805 0.235 t0.755 0.395 t0.815 0.56 q0.69 0.37 0.26 1.1 l-0.91 1.55 q-0.2 0.3 -0.49 0.37 t-0.63 -0.09 q-0.43 -0.42 -0.875 -0.625 t-1.015 -0.205 q-0.39 0 -0.685 0.11 t-0.535 0.31 t-0.45 0.48 t-0.42 0.62 l0 7.24 q0 0.38 -0.185 0.575 t-0.615 0.195 l-2.25 0 q-0.78 0 -0.78 -0.77 l0 -11.19 z M80.55 15.21 q0.17 0.14 0.435 0.375 t0.605 0.465 q0.51 0.34 1.01 0.53 t1.05 0.19 q0.51 0 0.855 -0.115 t0.545 -0.305 t0.285 -0.44 t0.085 -0.53 q0 -0.31 -0.235 -0.555 t-0.575 -0.435 t-0.71 -0.325 t-0.64 -0.225 q-1.2 -0.42 -2.1 -0.905 t-1.5 -1.08 t-0.9 -1.31 t-0.3 -1.595 q0 -0.93 0.375 -1.69 t1.07 -1.3 t1.675 -0.835 t2.19 -0.295 q0.91 0 1.745 0.205 t1.645 0.655 q0.34 0.2 0.645 0.415 t0.535 0.415 t0.365 0.38 t0.135 0.31 t-0.065 0.24 t-0.195 0.25 l-1.53 1.63 q-0.17 0.17 -0.34 0.17 q-0.14 0 -0.255 -0.08 t-0.255 -0.2 l-0.09 -0.08 q-0.2 -0.17 -0.445 -0.35 t-0.525 -0.325 t-0.59 -0.24 t-0.63 -0.095 q-0.33 0 -0.62 0.055 t-0.51 0.175 t-0.35 0.315 t-0.13 0.475 t0.14 0.485 t0.42 0.38 t0.695 0.33 t0.965 0.335 q1.06 0.35 1.955 0.735 t1.545 0.91 t1.015 1.255 t0.365 1.77 q0 1.1 -0.45 1.995 t-1.235 1.525 t-1.845 0.975 t-2.28 0.345 q-1.15 0 -2.26 -0.41 t-2.07 -1.1 q-0.4 -0.29 -0.675 -0.57 t-0.435 -0.45 l-0.03 -0.03 q-0.01 -0.02 -0.02 -0.025 t-0.02 -0.015 q-0.01 -0.02 -0.02 -0.025 t-0.02 -0.015 q-0.23 -0.25 -0.23 -0.4 q0 -0.17 0.23 -0.38 l1.73 -1.65 q0.21 -0.15 0.34 -0.15 q0.09 0 0.19 0.06 t0.24 0.18 z M104.46 19.26 q0 0.17 -0.06 0.325 t-0.2 0.245 q-0.11 0.11 -0.26 0.14 t-0.26 0.03 l-1.97 0 q-0.21 0 -0.34 -0.055 t-0.21 -0.155 t-0.135 -0.245 t-0.115 -0.315 l-0.29 -0.75 q-0.27 0.27 -0.59 0.575 t-0.705 0.565 t-0.835 0.435 t-0.96 0.175 q-0.91 0 -1.745 -0.23 t-1.56 -0.655 t-1.315 -1.02 t-1.015 -1.325 t-0.655 -1.575 t-0.23 -1.765 q0 -1.39 0.51 -2.585 t1.39 -2.08 t2.07 -1.39 t2.55 -0.505 q0.62 0 1.14 0.185 t0.945 0.485 t0.77 0.68 t0.615 0.77 l0.39 -1.21 q0.1 -0.25 0.165 -0.405 t0.14 -0.23 t0.185 -0.1 t0.31 -0.025 l1.49 0 q0.11 0 0.26 0.03 t0.26 0.14 q0.14 0.11 0.2 0.25 t0.06 0.32 l0 11.27 z M94.61 13.66 q0 0.66 0.205 1.235 t0.585 0.995 t0.915 0.665 t1.185 0.245 q0.67 0 1.245 -0.245 t1 -0.665 t0.665 -0.995 t0.24 -1.235 q0 -0.64 -0.24 -1.22 t-0.665 -1.02 t-1 -0.695 t-1.245 -0.255 q-0.65 0 -1.185 0.255 t-0.915 0.695 t-0.585 1.02 t-0.205 1.22 z M106.86 4.289999999999999 q0 -0.32 0.16 -0.54 t0.55 -0.22 l2.45 0 q0.1 0 0.21 0.055 t0.205 0.155 t0.16 0.24 t0.065 0.31 l0 14.94 q0 0.38 -0.215 0.575 t-0.555 0.195 l-2.32 0 q-0.39 0 -0.55 -0.195 t-0.16 -0.575 l0 -14.94 z M123.7 18.48 q-0.88 0.81 -1.98 1.265 t-2.33 0.455 q-1.37 0 -2.59 -0.5 t-2.14 -1.385 t-1.46 -2.085 t-0.54 -2.61 q0 -0.88 0.215 -1.705 t0.61 -1.545 t0.96 -1.325 t1.265 -1.035 t1.52 -0.67 t1.73 -0.24 q0.83 0 1.61 0.22 t1.465 0.62 t1.255 0.96 t0.98 1.225 t0.635 1.42 t0.225 1.555 q0 0.52 -0.015 0.85 t-0.155 0.525 t-0.465 0.27 t-0.955 0.075 l-7.2 0 q0.1 0.64 0.405 1.07 t0.705 0.685 t0.85 0.365 t0.85 0.11 q0.36 0 0.74 -0.075 t0.735 -0.2 t0.65 -0.29 t0.475 -0.345 q0.16 -0.13 0.275 -0.195 t0.245 -0.065 t0.265 0.09 t0.305 0.26 l1.06 1.2 q0.11 0.13 0.14 0.235 t0.03 0.215 q0 0.2 -0.11 0.345 t-0.26 0.255 z M118.89 10.15 q-0.39 0 -0.755 0.155 t-0.685 0.415 t-0.575 0.59 t-0.415 0.67 l5.11 0 q-0.21 -0.39 -0.455 -0.72 t-0.56 -0.58 t-0.72 -0.39 t-0.945 -0.14 z M129.12 16.05 q0.27 0.27 0.585 0.455 t0.605 0.3 t0.51 0.165 t0.3 0.05 q0.19 0 0.485 -0.015 t0.565 -0.09 t0.465 -0.245 t0.195 -0.48 q0 -0.28 -0.11 -0.445 t-0.32 -0.28 t-0.515 -0.205 t-0.685 -0.21 q-1.2 -0.32 -1.98 -0.77 t-1.235 -1.005 t-0.635 -1.195 t-0.18 -1.35 q0 -0.83 0.33 -1.51 t0.94 -1.165 t1.46 -0.75 t1.89 -0.265 q0.63 0 1.18 0.105 t1.05 0.33 t0.975 0.58 t0.945 0.845 q0.17 0.2 0.175 0.375 t-0.225 0.375 q-0.39 0.32 -0.745 0.63 t-0.735 0.69 q-0.12 0.1 -0.24 0.125 t-0.23 -0.005 t-0.21 -0.1 t-0.18 -0.17 q-0.35 -0.39 -0.8 -0.525 t-0.84 -0.135 q-0.49 0 -0.78 0.17 t-0.27 0.52 q0.02 0.26 0.195 0.405 t0.43 0.235 t0.54 0.145 t0.525 0.125 q0.9 0.29 1.65 0.63 t1.3 0.835 t0.855 1.185 t0.305 1.68 t-0.395 1.77 t-1.085 1.31 t-1.635 0.81 t-2.035 0.28 q-0.62 0 -1.26 -0.11 t-1.24 -0.355 t-1.14 -0.63 t-0.96 -0.935 q-0.11 -0.14 -0.165 -0.295 t-0.05 -0.305 t0.06 -0.275 t0.175 -0.215 l1.29 -1.29 q0.24 -0.2 0.425 -0.14 t0.475 0.34 z M149.73000000000002 5.539999999999999 q0.01 -0.06 0.065 -0.13 t0.135 -0.13 t0.17 -0.095 t0.17 -0.035 l2.56 0 q0.17 0 0.29 0.105 t0.18 0.185 l0.25 0.57 l5.25 13.54 q0.08 0.2 -0.03 0.325 t-0.38 0.125 l-2.87 0 q-0.23 0 -0.355 -0.085 t-0.195 -0.285 q-0.2 -0.51 -0.39 -1.015 t-0.38 -1.015 l-5.31 0 q-0.19 0.51 -0.385 1.015 t-0.385 1.015 q-0.13 0.37 -0.51 0.37 l-2.95 0 q-0.19 0 -0.315 -0.1 t-0.045 -0.3 z M151.55 9.82 q-0.19 0.51 -0.385 1.1 t-0.385 1.19 t-0.385 1.185 t-0.385 1.095 l3.07 0 z M160.83 5.59 q0 -0.18 0.11 -0.31 t0.33 -0.13 l2.94 0 q0.15 0 0.32 0.12 t0.17 0.32 l0 13.97 q0 0.44 -0.49 0.44 l-2.94 0 q-0.44 0 -0.44 -0.44 l0 -13.97 z"
    fill="#3056d3"
    transform="matrix(1.76,0,0,1.76,79.17,9.77)"
  ></path>
</svg>
